<svg xmlns="http://www.w3.org/2000/svg" xmlns:xlink="http://www.w3.org/1999/xlink" width="1000" height="1000" viewBox="0 0 1000 1000">
  <defs>
    <radialGradient id="radial-gradient" cx="0.5" cy="0.5" r="1.258" gradientTransform="matrix(0.725, 0.689, -0.656, 0.689, 0.465, -0.189)" gradientUnits="objectBoundingBox">
      <stop offset="0" stop-color="#00b7d3"/>
      <stop offset="1" stop-color="#005c6a"/>
    </radialGradient>
    <radialGradient id="radial-gradient-2" cx="0.5" cy="0.5" r="0.5" gradientUnits="objectBoundingBox">
      <stop offset="0" stop-color="#7c08a3"/>
      <stop offset="1" stop-color="#3e0452"/>
    </radialGradient>
    <clipPath id="clip-Custom_Size_1">
      <rect width="1000" height="1000"/>
    </clipPath>
  </defs>
  <g id="Custom_Size_1" data-name="Custom Size – 1" clip-path="url(#clip-Custom_Size_1)">
    <g id="user-astronaut-duotone" transform="translate(276 217.004)">
      <path id="Path_1" data-name="Path 1" d="M296,96H152c-26.5,0-48,17.9-48,40v24a96,96,0,0,0,96,96h48a96,96,0,0,0,96-96V136C344,113.9,322.5,96,296,96ZM188,172l-12,36-12-36-36-12,36-12,12-36,12,36,36,12ZM176,448a16,16,0,0,0-16,16v48h32V464A16,16,0,0,0,176,448Zm96,0a16,16,0,1,0,16,16A16,16,0,0,0,272,448Z" opacity="0.4" fill="url(#radial-gradient)"/>
      <path id="Path_2" data-name="Path 2" d="M327.6,321.4a190.68,190.68,0,0,1-207.2,0C52.9,328.5,0,385,0,454.4V464a48,48,0,0,0,48,48h80V448a32,32,0,0,1,32-32H288a32,32,0,0,1,32,32v64h80a48,48,0,0,0,48-48v-9.6C448,385,395.1,328.5,327.6,321.4ZM64,224H77.5a159.78,159.78,0,0,0,293,0H384a16,16,0,0,0,16-16V112a16,16,0,0,0-16-16H370.5a159.78,159.78,0,0,0-293,0H64a16,16,0,0,0-16,16v96a16,16,0,0,0,16,16Zm40-88c0-22.1,21.5-40,48-40H296c26.5,0,48,17.9,48,40v24a96,96,0,0,1-96,96H200a96,96,0,0,1-96-96Z" fill="url(#radial-gradient-2)"/>
    </g>
  </g>
</svg>
