<svg xmlns="http://www.w3.org/2000/svg" xmlns:xlink="http://www.w3.org/1999/xlink" width="1000" height="1000" viewBox="0 0 1000 1000">
  <defs>
    <clipPath id="clip-Custom_Size_1">
      <rect width="1000" height="1000"/>
    </clipPath>
  </defs>
  <g id="Custom_Size_1" data-name="Custom Size – 1" clip-path="url(#clip-Custom_Size_1)">
    <g id="wu_illustration_41" transform="translate(210.482 193.853)">
      <g id="Group_1" data-name="Group 1" transform="translate(285.192 275.292)">
        <path id="Path_3" data-name="Path 3" d="M146.414,140.044c.929-1.952,1.078-2.549-.031-4.406s-1.677-1.96-3.718-1.863-2.595.251-3.524,2.205-.723,2.533.385,4.389,1.539,1.684,3.528,2.2C145.081,143.092,145.485,142,146.414,140.044Z" transform="translate(-138.554 -133.75)" fill="none" stroke="#26e3ff" stroke-miterlimit="10" stroke-width="0.01"/>
      </g>
      <g id="Group_2" data-name="Group 2" transform="translate(284.836 275.31)">
        <path id="Path_4" data-name="Path 4" d="M146.8,140.216c1.119-1.9,1.315-2.489.216-4.4s-1.71-2.044-3.93-2.055-2.831.115-3.951,2.018-.929,2.492.169,4.4,1.574,1.762,3.7,2.38C145.178,143.191,145.678,142.118,146.8,140.216Z" transform="translate(-138.381 -133.759)" fill="none" stroke="#26e3ff" stroke-miterlimit="10" stroke-width="0.01"/>
      </g>
      <g id="Group_3" data-name="Group 3" transform="translate(284.455 275.281)">
        <path id="Path_5" data-name="Path 5" d="M147.2,140.425c1.323-1.84,1.57-2.417.484-4.383s-1.739-2.131-4.148-2.259-3.079-.033-4.4,1.807-1.152,2.44-.068,4.406,1.609,1.84,3.885,2.572C145.272,143.312,145.878,142.265,147.2,140.425Z" transform="translate(-138.196 -133.744)" fill="none" stroke="#26e3ff" stroke-miterlimit="10" stroke-width="0.011"/>
      </g>
      <g id="Group_4" data-name="Group 4" transform="translate(284.052 275.232)">
        <path id="Path_6" data-name="Path 6" d="M147.623,140.654c1.541-1.768,1.84-2.333.775-4.352s-1.768-2.219-4.375-2.471-3.341-.194-4.882,1.574-1.389,2.376-.324,4.4,1.642,1.923,4.07,2.772C145.365,143.434,146.082,142.422,147.623,140.654Z" transform="translate(-138.001 -133.721)" fill="none" stroke="#26e3ff" stroke-miterlimit="10" stroke-width="0.011"/>
      </g>
      <g id="Group_5" data-name="Group 5" transform="translate(283.624 275.168)">
        <path id="Path_7" data-name="Path 7" d="M148.064,140.9c1.774-1.686,2.131-2.232,1.09-4.307s-1.793-2.308-4.608-2.7-3.615-.369-5.389,1.317-1.642,2.3-.6,4.373,1.673,2.005,4.262,2.98C145.455,143.559,146.289,142.585,148.064,140.9Z" transform="translate(-137.793 -133.69)" fill="none" stroke="#26e3ff" stroke-miterlimit="10" stroke-width="0.012"/>
      </g>
      <g id="Group_6" data-name="Group 6" transform="translate(283.17 275.099)">
        <path id="Path_8" data-name="Path 8" d="M148.525,141.161c2.022-1.589,2.44-2.118,1.428-4.243s-1.814-2.4-4.847-2.935-3.9-.556-5.925,1.032-1.914,2.211-.9,4.336,1.7,2.092,4.455,3.2C145.543,143.682,146.5,142.752,148.525,141.161Z" transform="translate(-137.572 -133.656)" fill="none" stroke="#26e3ff" stroke-miterlimit="10" stroke-width="0.012"/>
      </g>
      <g id="Group_7" data-name="Group 7" transform="translate(282.69 275.02)">
        <path id="Path_9" data-name="Path 9" d="M149.007,141.439c2.283-1.482,2.77-1.987,1.791-4.163s-1.832-2.492-5.094-3.184-4.206-.76-6.489.721-2.2,2.108-1.224,4.282,1.729,2.176,4.655,3.427C145.625,143.8,146.723,142.923,149.007,141.439Z" transform="translate(-137.34 -133.618)" fill="none" stroke="#26e3ff" stroke-miterlimit="10" stroke-width="0.013"/>
      </g>
      <g id="Group_8" data-name="Group 8" transform="translate(282.179 274.933)">
        <path id="Path_10" data-name="Path 10" d="M149.511,141.733c2.564-1.36,3.12-1.84,2.18-4.064s-1.846-2.584-5.35-3.448-4.521-.979-7.085.381-2.512,1.989-1.572,4.212,1.752,2.265,4.857,3.666C145.706,143.914,146.947,143.093,149.511,141.733Z" transform="translate(-137.092 -133.575)" fill="none" stroke="#26e3ff" stroke-miterlimit="10" stroke-width="0.013"/>
      </g>
      <g id="Group_9" data-name="Group 9" transform="translate(281.64 274.838)">
        <path id="Path_11" data-name="Path 11" d="M150.035,142.044c2.86-1.224,3.491-1.673,2.6-3.944s-1.859-2.677-5.612-3.722-4.853-1.216-7.714.008-2.84,1.855-1.947,4.126,1.772,2.353,5.063,3.915C145.78,144.022,147.175,143.268,150.035,142.044Z" transform="translate(-136.83 -133.53)" fill="none" stroke="#26e3ff" stroke-miterlimit="10" stroke-width="0.014"/>
      </g>
      <g id="Group_10" data-name="Group 10" transform="translate(281.075 274.734)">
        <path id="Path_12" data-name="Path 12" d="M150.579,142.371c3.174-1.074,3.885-1.49,3.046-3.8s-1.865-2.77-5.877-4.01-5.2-1.467-8.373-.394-3.188,1.7-2.349,4.019,1.791,2.442,5.274,4.175C145.848,144.123,147.4,143.445,150.579,142.371Z" transform="translate(-136.556 -133.479)" fill="none" stroke="#26e3ff" stroke-miterlimit="10" stroke-width="0.014"/>
      </g>
      <g id="Group_11" data-name="Group 11" transform="translate(280.476 274.615)">
        <path id="Path_13" data-name="Path 13" d="M151.148,142.721c3.507-.9,4.3-1.284,3.522-3.637s-1.867-2.864-6.154-4.313-5.558-1.737-9.065-.833-3.557,1.535-2.778,3.889,1.805,2.533,5.488,4.445C145.913,144.221,147.64,143.625,151.148,142.721Z" transform="translate(-136.265 -133.421)" fill="none" stroke="#26e3ff" stroke-miterlimit="10" stroke-width="0.015"/>
      </g>
      <g id="Group_12" data-name="Group 12" transform="translate(279.843 274.479)">
        <path id="Path_14" data-name="Path 14" d="M151.737,143.09c3.858-.721,4.742-1.057,4.029-3.448s-1.863-2.957-6.434-4.629-5.935-2.026-9.793-1.3-3.948,1.348-3.237,3.738,1.816,2.623,5.7,4.727C145.971,144.316,147.88,143.811,151.737,143.09Z" transform="translate(-135.958 -133.355)" fill="none" stroke="#26e3ff" stroke-miterlimit="10" stroke-width="0.016"/>
      </g>
      <g id="Group_13" data-name="Group 13" transform="translate(279.181 274.317)">
        <path id="Path_15" data-name="Path 15" d="M152.35,143.487c4.229-.517,5.206-.808,4.571-3.233s-1.855-3.052-6.72-4.958-6.327-2.333-10.555-1.816-4.363,1.138-3.726,3.563,1.822,2.716,5.923,5.02C146.019,144.41,148.121,144,152.35,143.487Z" transform="translate(-135.637 -133.276)" fill="none" stroke="#26e3ff" stroke-miterlimit="10" stroke-width="0.016"/>
      </g>
      <g id="Group_14" data-name="Group 14" transform="translate(278.481 274.118)">
        <path id="Path_16" data-name="Path 16" d="M152.987,143.916c4.62-.295,5.7-.534,5.144-2.988s-1.84-3.145-7.011-5.3-6.735-2.663-11.355-2.366-4.8.909-4.247,3.363,1.822,2.807,6.143,5.323C146.062,144.506,148.366,144.213,152.987,143.916Z" transform="translate(-135.297 -133.18)" fill="none" stroke="#26e3ff" stroke-miterlimit="10" stroke-width="0.017"/>
      </g>
      <g id="Group_15" data-name="Group 15" transform="translate(277.743 273.857)">
        <path id="Path_17" data-name="Path 17" d="M153.647,144.393c5.03-.054,6.215-.235,5.754-2.716s-1.818-3.235-7.31-5.663-7.159-3.011-12.19-2.957-5.261.655-4.8,3.137,1.818,2.9,6.366,5.636C146.1,144.62,148.616,144.447,153.647,144.393Z" transform="translate(-134.939 -133.053)" fill="none" stroke="#26e3ff" stroke-miterlimit="10" stroke-width="0.018"/>
      </g>
      <g id="Group_16" data-name="Group 16" transform="translate(276.966 273.471)">
        <path id="Path_18" data-name="Path 18" d="M154.333,144.946c5.463.21,6.759.091,6.4-2.411s-1.789-3.326-7.613-6.038-7.6-3.382-13.063-3.592-5.75.379-5.391,2.881,1.809,2.99,6.588,5.962C146.127,144.777,148.87,144.736,154.333,144.946Z" transform="translate(-134.562 -132.866)" fill="none" stroke="#26e3ff" stroke-miterlimit="10" stroke-width="0.018"/>
      </g>
      <g id="Group_17" data-name="Group 17" transform="translate(276.146 272.988)">
        <path id="Path_19" data-name="Path 19" d="M155.046,145.566c5.919.5,7.332.445,7.085-2.073s-1.752-3.415-7.92-6.428-8.058-3.773-13.976-4.27-6.261.078-6.015,2.595,1.793,3.081,6.813,6.3C146.147,144.968,149.125,145.069,155.046,145.566Z" transform="translate(-134.164 -132.632)" fill="none" stroke="#26e3ff" stroke-miterlimit="10" stroke-width="0.019"/>
      </g>
      <g id="Group_18" data-name="Group 18" transform="translate(275.275 272.437)">
        <path id="Path_20" data-name="Path 20" d="M155.786,146.235c6.4.806,7.934.828,7.808-1.7s-1.708-3.5-8.231-6.834-8.532-4.192-14.928-5-6.8-.249-6.677,2.277,1.77,3.169,7.036,6.646C146.163,145.171,149.39,145.429,155.786,146.235Z" transform="translate(-133.742 -132.365)" fill="none" stroke="#26e3ff" stroke-miterlimit="10" stroke-width="0.02"/>
      </g>
      <g id="Group_19" data-name="Group 19" transform="translate(274.348 271.822)">
        <path id="Path_21" data-name="Path 21" d="M156.56,146.949c6.9,1.14,8.565,1.243,8.573-1.288s-1.655-3.588-8.544-7.256-9.022-4.631-15.92-5.77-7.369-.606-7.378,1.925,1.741,3.258,7.26,7C146.174,145.385,149.663,145.812,156.56,146.949Z" transform="translate(-133.292 -132.066)" fill="none" stroke="#26e3ff" stroke-miterlimit="10" stroke-width="0.021"/>
      </g>
      <g id="Group_20" data-name="Group 20" transform="translate(273.357 271.159)">
        <path id="Path_22" data-name="Path 22" d="M157.372,147.707c7.423,1.5,9.226,1.688,9.379-.837s-1.593-3.668-8.861-7.693-9.529-5.1-16.952-6.595-7.963-.989-8.117,1.535,1.706,3.345,7.481,7.376C146.186,145.6,149.949,146.208,157.372,147.707Z" transform="translate(-132.811 -131.744)" fill="none" stroke="#26e3ff" stroke-miterlimit="10" stroke-width="0.022"/>
      </g>
      <g id="Group_21" data-name="Group 21" transform="translate(272.31 270.437)">
        <path id="Path_23" data-name="Path 23" d="M158.211,148.507c7.971,1.884,9.919,2.168,10.228-.346s-1.519-3.747-9.181-8.146-10.055-5.589-18.026-7.472-8.587-1.405-8.9,1.109,1.661,3.429,7.7,7.757C146.191,145.818,150.24,146.623,158.211,148.507Z" transform="translate(-132.303 -131.394)" fill="none" stroke="#26e3ff" stroke-miterlimit="10" stroke-width="0.023"/>
      </g>
      <g id="Group_22" data-name="Group 22" transform="translate(271.214 269.663)">
        <path id="Path_24" data-name="Path 24" d="M159.078,149.35c8.546,2.3,10.642,2.685,11.122.19s-1.436-3.821-9.5-8.616-10.595-6.108-19.141-8.406-9.243-1.853-9.721.641,1.607,3.512,7.918,8.15C146.182,146.036,150.532,147.05,159.078,149.35Z" transform="translate(-131.771 -131.018)" fill="none" stroke="#26e3ff" stroke-miterlimit="10" stroke-width="0.024"/>
      </g>
      <g id="Group_23" data-name="Group 23" transform="translate(270.061 268.837)">
        <path id="Path_25" data-name="Path 25" d="M159.975,150.235c9.146,2.743,11.4,3.238,12.062.773s-1.342-3.891-9.826-9.1-11.153-6.654-20.3-9.4-9.927-2.335-10.588.132,1.546,3.592,8.132,8.552C146.166,146.252,150.831,147.492,159.975,150.235Z" transform="translate(-131.212 -130.617)" fill="none" stroke="#26e3ff" stroke-miterlimit="10" stroke-width="0.025"/>
      </g>
      <g id="Group_24" data-name="Group 24" transform="translate(268.857 267.954)">
        <path id="Path_26" data-name="Path 26" d="M160.9,151.166c9.77,3.219,12.19,3.831,13.047,1.4s-1.234-3.957-10.147-9.6-11.728-7.229-21.5-10.446-10.642-2.85-11.5-.422,1.473,3.668,8.34,8.967C146.136,146.463,151.127,147.947,160.9,151.166Z" transform="translate(-130.627 -130.189)" fill="none" stroke="#26e3ff" stroke-miterlimit="10" stroke-width="0.026"/>
      </g>
      <g id="Group_25" data-name="Group 25" transform="translate(267.603 267.018)">
        <path id="Path_27" data-name="Path 27" d="M161.846,152.138c10.423,3.726,13.012,4.464,14.083,2.083S174.814,150.2,165.46,144.1s-12.319-7.833-22.743-11.557-11.39-3.4-12.46-1.024,1.391,3.74,8.542,9.391C146.089,146.668,151.422,148.412,161.846,152.138Z" transform="translate(-130.019 -129.735)" fill="none" stroke="#26e3ff" stroke-miterlimit="10" stroke-width="0.027"/>
      </g>
      <g id="Group_26" data-name="Group 26" transform="translate(266.297 266.022)">
        <path id="Path_28" data-name="Path 28" d="M162.819,153.155c11.1,4.266,13.871,5.138,15.167,2.817S177,151.9,167.2,145.318s-12.927-8.466-24.029-12.732S131,128.593,129.7,130.913s1.3,3.806,8.738,9.826C146.026,146.87,151.718,148.892,162.819,153.155Z" transform="translate(-129.385 -129.252)" fill="none" stroke="#26e3ff" stroke-miterlimit="10" stroke-width="0.028"/>
      </g>
      <g id="Group_27" data-name="Group 27" transform="translate(264.937 264.967)">
        <path id="Path_29" data-name="Path 29" d="M163.816,154.22c11.808,4.841,14.764,5.857,16.3,3.606s-.835-4.115-11.1-11.2-13.55-9.131-25.358-13.972-12.983-4.626-14.522-2.376,1.191,3.87,8.927,10.269C145.945,147.065,152.008,149.379,163.816,154.22Z" transform="translate(-128.725 -128.739)" fill="none" stroke="#26e3ff" stroke-miterlimit="10" stroke-width="0.029"/>
      </g>
      <g id="Group_28" data-name="Group 28" transform="translate(263.522 263.851)">
        <path id="Path_30" data-name="Path 30" d="M164.837,155.33c12.542,5.453,15.693,6.621,17.492,4.455s-.672-4.152-11.415-11.771-14.189-9.828-26.73-15.279-13.828-5.3-15.629-3.134,1.074,3.926,9.1,10.722C145.845,147.25,152.295,149.877,164.837,155.33Z" transform="translate(-128.039 -128.198)" fill="none" stroke="#26e3ff" stroke-miterlimit="10" stroke-width="0.03"/>
      </g>
      <g id="Group_29" data-name="Group 29" transform="translate(262.059 262.673)">
        <path id="Path_31" data-name="Path 31" d="M165.878,156.487c13.3,6.1,16.657,7.433,18.735,5.364s-.493-4.181-11.72-12.352-14.842-10.557-28.146-16.657-14.71-6.015-16.785-3.946.942,3.977,9.274,11.184C145.722,147.424,152.574,150.387,165.878,156.487Z" transform="translate(-127.329 -127.626)" fill="none" stroke="#26e3ff" stroke-miterlimit="10" stroke-width="0.032"/>
      </g>
      <g id="Group_30" data-name="Group 30" transform="translate(260.537 261.429)">
        <path id="Path_32" data-name="Path 32" d="M166.942,157.692c14.094,6.788,17.659,8.295,20.031,6.339s-.3-4.2-12.021-12.948-15.509-11.32-29.6-18.108-15.625-6.778-18-4.82.8,4.021,9.43,11.654C145.58,147.586,152.849,150.9,166.942,157.692Z" transform="translate(-126.59 -127.023)" fill="none" stroke="#26e3ff" stroke-miterlimit="10" stroke-width="0.033"/>
      </g>
      <g id="Group_31" data-name="Group 31" transform="translate(258.962 260.114)">
        <path id="Path_33" data-name="Path 33" d="M168.025,158.948c14.912,7.518,18.7,9.208,21.381,7.378s-.084-4.212-12.311-13.56-16.192-12.115-31.1-19.633-16.573-7.586-19.26-5.756.635,4.058,9.572,12.132C145.412,147.735,153.113,151.43,168.025,158.948Z" transform="translate(-125.826 -126.384)" fill="none" stroke="#26e3ff" stroke-miterlimit="10" stroke-width="0.034"/>
      </g>
      <g id="Group_32" data-name="Group 32" transform="translate(257.336 258.729)">
        <path id="Path_34" data-name="Path 34" d="M169.124,160.252c15.759,8.286,19.769,10.174,22.79,8.486s.148-4.21-12.591-14.184-16.886-12.946-32.645-21.234-17.558-8.443-20.579-6.755.46,4.084,9.7,12.616C145.216,147.873,153.365,151.964,169.124,160.252Z" transform="translate(-125.037 -125.713)" fill="none" stroke="#26e3ff" stroke-miterlimit="10" stroke-width="0.036"/>
      </g>
      <g id="Group_33" data-name="Group 33" transform="translate(255.654 257.27)">
        <path id="Path_35" data-name="Path 35" d="M170.241,161.607c16.635,9.1,20.88,11.194,24.253,9.667s.4-4.2-12.859-14.825-17.593-13.811-34.228-22.912-18.58-9.35-21.954-7.823.266,4.1,9.811,13.107C145,147.994,153.606,152.507,170.241,161.607Z" transform="translate(-124.221 -125.005)" fill="none" stroke="#26e3ff" stroke-miterlimit="10" stroke-width="0.037"/>
      </g>
      <g id="Group_34" data-name="Group 34" transform="translate(253.92 255.735)">
        <path id="Path_36" data-name="Path 36" d="M171.373,163.015c17.539,9.96,22.028,12.272,25.776,10.924s.674-4.171-13.117-15.477-18.31-14.714-35.849-24.672-19.635-10.31-23.384-8.962.054,4.111,9.906,13.6C144.743,148.1,153.835,153.055,171.373,163.015Z" transform="translate(-123.379 -124.26)" fill="none" stroke="#26e3ff" stroke-miterlimit="10" stroke-width="0.039"/>
      </g>
      <g id="Group_35" data-name="Group 35" transform="translate(252.135 254.114)">
        <path id="Path_37" data-name="Path 37" d="M172.516,164.478c18.471,10.862,23.213,13.407,27.359,12.258s.969-4.13-13.356-16.142-19.04-15.652-37.51-26.516-20.727-11.324-24.874-10.172-.175,4.109,9.978,14.1C144.459,148.188,154.045,153.614,172.516,164.478Z" transform="translate(-122.513 -123.473)" fill="none" stroke="#26e3ff" stroke-miterlimit="10" stroke-width="0.041"/>
      </g>
      <g id="Group_36" data-name="Group 36" transform="translate(250.299 252.409)">
        <path id="Path_38" data-name="Path 38" d="M173.669,165.995c19.431,11.814,24.435,14.6,29,13.673s1.286-4.072-13.581-16.82-19.775-16.626-39.206-28.441-21.855-12.392-26.419-11.46-.422,4.095,10.028,14.6C144.14,148.26,154.236,154.18,173.669,165.995Z" transform="translate(-121.622 -122.646)" fill="none" stroke="#26e3ff" stroke-miterlimit="10" stroke-width="0.042"/>
      </g>
      <g id="Group_37" data-name="Group 37" transform="translate(248.404 250.609)">
        <path id="Path_39" data-name="Path 39" d="M174.832,167.571c20.42,12.816,25.692,15.864,30.7,15.172s1.628-4-13.785-17.506-20.519-17.638-40.94-30.454-23.017-13.519-28.027-12.828-.692,4.066,10.055,15.11C143.788,148.315,154.412,154.757,174.832,167.571Z" transform="translate(-120.703 -121.772)" fill="none" stroke="#26e3ff" stroke-miterlimit="10" stroke-width="0.044"/>
      </g>
      <g id="Group_38" data-name="Group 38" transform="translate(246.467 248.707)">
        <path id="Path_40" data-name="Path 40" d="M176,169.209c21.436,13.867,26.984,17.187,32.462,16.758s1.995-3.909-13.966-18.205-21.269-18.689-42.708-32.556-24.214-14.706-29.692-14.277-.983,4.025,10.055,15.615C143.4,148.354,154.562,155.342,176,169.209Z" transform="translate(-119.762 -120.849)" fill="none" stroke="#26e3ff" stroke-miterlimit="10" stroke-width="0.046"/>
      </g>
      <g id="Group_39" data-name="Group 39" transform="translate(244.478 246.686)">
        <path id="Path_41" data-name="Path 41" d="M177.167,170.915c22.479,14.97,28.313,18.576,34.283,18.434s2.386-3.8-14.125-18.91-22.026-19.777-44.5-34.747S127.372,119.74,121.4,119.88s-1.3,3.967,10.026,16.119C142.966,148.384,154.687,155.945,177.167,170.915Z" transform="translate(-118.797 -119.869)" fill="none" stroke="#26e3ff" stroke-miterlimit="10" stroke-width="0.048"/>
      </g>
      <g id="Group_40" data-name="Group 40" transform="translate(242.44 244.518)">
        <path id="Path_42" data-name="Path 42" d="M178.335,172.705c23.549,16.126,29.677,20.031,36.165,20.2s2.807-3.67-14.254-19.623-22.782-20.9-46.333-37.028-26.716-17.263-33.2-17.434-1.632,3.895,9.966,16.622C142.492,148.415,154.784,156.579,178.335,172.705Z" transform="translate(-117.808 -118.816)" fill="none" stroke="#26e3ff" stroke-miterlimit="10" stroke-width="0.05"/>
      </g>
      <g id="Group_41" data-name="Group 41" transform="translate(240.357 242.22)">
        <path id="Path_43" data-name="Path 43" d="M179.5,174.566c24.645,17.335,31.075,21.558,38.106,22.067s3.256-3.518-14.357-20.342-23.54-22.067-48.185-39.4-28.016-18.638-35.048-19.147-1.993,3.8,9.871,17.121C141.973,148.433,154.853,157.23,179.5,174.566Z" transform="translate(-116.797 -117.702)" fill="none" stroke="#26e3ff" stroke-miterlimit="10" stroke-width="0.052"/>
      </g>
      <g id="Group_42" data-name="Group 42" transform="translate(238.226 239.803)">
        <path id="Path_44" data-name="Path 44" d="M180.655,176.492c25.766,18.6,32.5,23.153,40.107,24.031s3.734-3.343-14.428-21.065-24.3-23.268-50.063-41.869-29.352-20.078-36.954-20.956-2.38,3.695,9.741,17.614C141.411,148.431,154.891,157.892,180.655,176.492Z" transform="translate(-115.764 -116.528)" fill="none" stroke="#26e3ff" stroke-miterlimit="10" stroke-width="0.054"/>
      </g>
      <g id="Group_43" data-name="Group 43" transform="translate(236.054 237.267)">
        <path id="Path_45" data-name="Path 45" d="M181.8,178.481c26.91,19.926,33.964,24.822,42.168,26.1s4.243-3.143-14.463-21.793-25.051-24.507-51.959-44.433-30.718-21.587-38.922-22.86-2.794,3.565,9.572,18.1C140.8,148.4,154.891,158.558,181.8,178.481Z" transform="translate(-114.71 -115.298)" fill="none" stroke="#26e3ff" stroke-miterlimit="10" stroke-width="0.057"/>
      </g>
      <g id="Group_44" data-name="Group 44" transform="translate(233.842 234.615)">
        <path id="Path_46" data-name="Path 46" d="M182.928,180.533C211,201.84,218.381,207.1,227.214,208.8s4.785-2.916-14.458-22.52-25.8-25.785-53.873-47.091-32.115-23.165-40.948-24.868-3.235,3.413,9.36,18.576C140.133,148.35,154.853,159.227,182.928,180.533Z" transform="translate(-113.636 -114.011)" fill="none" stroke="#26e3ff" stroke-miterlimit="10" stroke-width="0.059"/>
      </g>
      <g id="Group_45" data-name="Group 45" transform="translate(231.599 231.845)">
        <path id="Path_47" data-name="Path 47" d="M184.033,182.643C213.3,205.39,221.005,211.028,230.5,213.19s5.36-2.66-14.413-23.246-26.535-27.1-55.8-49.846-33.541-24.814-43.031-26.976-3.705,3.24,9.1,19.042C139.41,148.265,154.769,159.9,184.033,182.643Z" transform="translate(-112.548 -112.667)" fill="none" stroke="#26e3ff" stroke-miterlimit="10" stroke-width="0.062"/>
      </g>
      <g id="Group_46" data-name="Group 46" transform="translate(229.317 228.956)">
        <path id="Path_48" data-name="Path 48" d="M185.115,184.808c30.471,24.247,38.518,30.281,48.7,32.938s5.97-2.378-14.322-23.967-27.262-28.451-57.731-52.7-35-26.535-45.175-29.191-4.206,3.042,8.8,19.491C138.634,148.143,154.646,160.563,185.115,184.808Z" transform="translate(-111.44 -111.265)" fill="none" stroke="#26e3ff" stroke-miterlimit="10" stroke-width="0.064"/>
      </g>
      <g id="Group_47" data-name="Group 47" transform="translate(227.005 225.95)">
        <path id="Path_49" data-name="Path 49" d="M186.165,187.031c31.695,25.807,40.089,32.255,50.986,35.441s6.615-2.061-14.182-24.684S195,167.95,163.3,142.141s-36.478-28.33-47.375-31.516-4.74,2.817,8.443,19.926C137.8,147.981,154.472,161.222,186.165,187.031Z" transform="translate(-110.318 -109.807)" fill="none" stroke="#26e3ff" stroke-miterlimit="10" stroke-width="0.067"/>
      </g>
      <g id="Group_48" data-name="Group 48" transform="translate(224.666 222.824)">
        <path id="Path_50" data-name="Path 50" d="M187.179,189.306c32.936,27.431,41.679,34.31,53.327,38.061s7.3-1.712-13.991-25.393-28.666-31.262-61.6-58.693-37.984-30.2-49.632-33.952-5.3,2.566,8.031,20.34C136.9,147.779,154.243,161.875,187.179,189.306Z" transform="translate(-109.184 -108.29)" fill="none" stroke="#26e3ff" stroke-miterlimit="10" stroke-width="0.07"/>
      </g>
      <g id="Group_49" data-name="Group 49" transform="translate(222.306 219.577)">
        <path id="Path_51" data-name="Path 51" d="M188.151,191.633c34.191,29.117,43.291,36.445,55.72,40.8s8.019-1.327-13.741-26.09S200.792,173.623,166.6,144.5s-39.514-32.146-51.942-36.5-5.9,2.283,7.559,20.732C135.936,147.532,153.96,162.514,188.151,191.633Z" transform="translate(-108.038 -106.714)" fill="none" stroke="#26e3ff" stroke-miterlimit="10" stroke-width="0.073"/>
      </g>
      <g id="Group_50" data-name="Group 50" transform="translate(219.924 216.209)">
        <path id="Path_52" data-name="Path 52" d="M189.074,194.007c35.456,30.866,44.917,38.66,58.16,43.66s8.779-.907-13.432-26.774-29.984-34.211-65.438-65.078-41.061-34.172-54.306-39.171-6.539,1.972,7.025,21.1C134.906,147.234,153.618,163.141,189.074,194.007Z" transform="translate(-106.882 -105.08)" fill="none" stroke="#26e3ff" stroke-miterlimit="10" stroke-width="0.076"/>
      </g>
      <g id="Group_51" data-name="Group 51" transform="translate(217.53 212.723)">
        <path id="Path_53" data-name="Path 53" d="M189.942,196.426c36.729,32.68,46.555,40.958,60.647,46.644s9.583-.445-13.057-27.439-30.6-35.732-67.33-68.412-42.627-36.274-56.719-41.96-7.211,1.626,6.426,21.438C133.806,146.883,153.212,163.746,189.942,196.426Z" transform="translate(-105.721 -103.388)" fill="none" stroke="#26e3ff" stroke-miterlimit="10" stroke-width="0.079"/>
      </g>
      <g id="Group_52" data-name="Group 52" transform="translate(215.132 209.114)">
        <path id="Path_54" data-name="Path 54" d="M190.745,198.89c38.009,34.557,48.206,43.338,63.178,49.754s10.426.056-12.612-28.087-31.184-37.286-69.193-71.843-44.208-38.454-59.18-44.87-7.918,1.247,5.756,21.745C132.629,146.476,152.736,164.331,190.745,198.89Z" transform="translate(-104.557 -101.637)" fill="none" stroke="#26e3ff" stroke-miterlimit="10" stroke-width="0.083"/>
      </g>
      <g id="Group_53" data-name="Group 53" transform="translate(212.731 205.386)">
        <path id="Path_55" data-name="Path 55" d="M191.48,201.39c39.293,36.5,49.861,45.8,65.747,52.993s11.314.6-12.093-28.707-31.728-38.866-71.019-75.365S128.317,109.6,112.43,102.4s-8.666.831,5.012,22.015C131.377,146.007,152.187,164.89,191.48,201.39Z" transform="translate(-103.392 -99.828)" fill="none" stroke="#26e3ff" stroke-miterlimit="10" stroke-width="0.086"/>
      </g>
      <g id="Group_54" data-name="Group 54" transform="translate(210.333 201.535)">
        <path id="Path_56" data-name="Path 56" d="M192.136,203.927c40.575,38.506,51.516,48.348,68.35,56.361s12.247,1.193-11.493-29.3-32.229-40.474-72.8-78.98-47.4-43.056-64.231-51.068-9.455.377,4.188,22.248C130.046,145.472,151.561,165.421,192.136,203.927Z" transform="translate(-102.228 -97.959)" fill="none" stroke="#26e3ff" stroke-miterlimit="10" stroke-width="0.09"/>
      </g>
      <g id="Group_55" data-name="Group 55" transform="translate(207.949 197.565)">
        <path id="Path_57" data-name="Path 57" d="M192.7,206.494c41.853,40.577,53.168,50.978,70.986,59.86s13.226,1.832-10.807-29.863-32.68-42.1-74.53-82.681-49-45.478-66.815-54.36-10.283-.12,3.279,22.438C128.634,144.87,150.851,165.917,192.7,206.494Z" transform="translate(-101.071 -96.033)" fill="none" stroke="#26e3ff" stroke-miterlimit="10" stroke-width="0.094"/>
      </g>
      <g id="Group_56" data-name="Group 56" transform="translate(205.579 193.475)">
        <path id="Path_58" data-name="Path 58" d="M193.177,209.085c43.12,42.712,54.813,53.692,73.648,63.493s14.252,2.522-10.032-30.386-33.078-43.757-76.2-86.469S130,107.744,111.162,97.941s-11.155-.657,2.283,22.578C127.137,144.2,150.057,166.375,193.177,209.085Z" transform="translate(-99.921 -94.048)" fill="none" stroke="#26e3ff" stroke-miterlimit="10" stroke-width="0.098"/>
      </g>
      <g id="Group_57" data-name="Group 57" transform="translate(203.235 189.271)">
        <path id="Path_59" data-name="Path 59" d="M193.547,211.7c44.377,44.911,56.443,56.486,76.332,67.262s15.326,3.264-9.162-30.871-33.416-45.428-77.791-90.339-52.194-50.561-72.082-61.337-12.072-1.241,1.193,22.667C125.555,143.441,149.172,166.79,193.547,211.7Z" transform="translate(-98.784 -92.008)" fill="none" stroke="#26e3ff" stroke-miterlimit="10" stroke-width="0.102"/>
      </g>
      <g id="Group_58" data-name="Group 58" transform="translate(200.93 184.951)">
        <path id="Path_60" data-name="Path 60" d="M193.8,214.326c45.614,47.171,58.052,59.363,79.029,71.163s16.451,4.062-8.188-31.307-33.688-47.114-79.3-94.285-53.778-53.224-74.753-65.026-13.032-1.869.006,22.7C123.879,142.6,148.186,167.155,193.8,214.326Z" transform="translate(-97.666 -89.912)" fill="none" stroke="#26e3ff" stroke-miterlimit="10" stroke-width="0.106"/>
      </g>
      <g id="Group_59" data-name="Group 59" transform="translate(198.666 180.521)">
        <path id="Path_61" data-name="Path 61" d="M193.929,216.961c46.829,49.494,59.637,62.32,81.735,75.2s17.626,4.917-7.108-31.693-33.886-48.814-80.715-98.306S132.495,106.2,110.4,93.316s-14.04-2.549-1.284,22.667C122.113,141.676,147.1,167.467,193.929,216.961Z" transform="translate(-96.567 -87.762)" fill="none" stroke="#26e3ff" stroke-miterlimit="10" stroke-width="0.111"/>
      </g>
      <g id="Group_60" data-name="Group 60" transform="translate(196.454 175.977)">
        <path id="Path_62" data-name="Path 62" d="M193.922,219.6c48.016,51.876,61.189,65.356,84.443,79.377s18.852,5.834-5.912-32.023-34.005-50.52-82.021-102.4-56.892-58.786-80.144-72.808-15.1-3.281-2.683,22.57C120.251,140.66,145.905,167.725,193.922,219.6Z" transform="translate(-95.494 -85.557)" fill="none" stroke="#26e3ff" stroke-miterlimit="10" stroke-width="0.115"/>
      </g>
      <g id="Group_61" data-name="Group 61" transform="translate(194.305 171.328)">
        <path id="Path_63" data-name="Path 63" d="M193.769,222.233c49.168,54.318,62.7,68.468,87.143,83.687s20.132,6.811-4.6-32.286S242.278,221.4,193.109,167.084,134.7,105.4,110.257,90.182s-16.2-4.066-4.2,22.4C118.29,139.546,144.6,167.915,193.769,222.233Z" transform="translate(-94.451 -83.301)" fill="none" stroke="#26e3ff" stroke-miterlimit="10" stroke-width="0.12"/>
      </g>
      <g id="Group_62" data-name="Group 62" transform="translate(192.23 166.577)">
        <path id="Path_64" data-name="Path 64" d="M193.454,224.852c50.281,56.818,64.165,71.656,89.83,88.134s21.465,7.856-3.151-32.484-33.976-53.939-84.255-110.757-59.893-64.655-85.558-81.133-17.352-4.909-5.83,22.147C116.23,138.328,143.173,168.034,193.454,224.852Z" transform="translate(-93.444 -80.996)" fill="none" stroke="#26e3ff" stroke-miterlimit="10" stroke-width="0.125"/>
      </g>
      <g id="Group_63" data-name="Group 63" transform="translate(190.237 161.729)">
        <path id="Path_65" data-name="Path 65" d="M192.969,227.448c51.347,59.371,65.574,74.916,92.494,92.715s22.852,8.969-1.572-32.6-33.811-55.643-85.156-115.015-61.335-67.7-88.255-85.5-18.555-5.809-7.588,21.811C114.068,137,141.625,168.077,192.969,227.448Z" transform="translate(-92.477 -78.643)" fill="none" stroke="#26e3ff" stroke-miterlimit="10" stroke-width="0.131"/>
      </g>
      <g id="Group_64" data-name="Group 64" transform="translate(188.338 156.788)">
        <path id="Path_66" data-name="Path 66" d="M192.3,230.012c52.356,61.976,66.916,78.246,95.126,97.428s24.295,10.151.148-32.641-33.535-57.337-85.892-119.314-62.726-70.819-90.934-90-19.812-6.774-9.478,21.385C111.8,135.56,139.946,168.036,192.3,230.012Z" transform="translate(-91.555 -76.246)" fill="none" stroke="#26e3ff" stroke-miterlimit="10" stroke-width="0.136"/>
      </g>
      <g id="Group_65" data-name="Group 65" transform="translate(186.544 151.758)">
        <path id="Path_67" data-name="Path 67" d="M191.441,232.537c53.306,64.633,68.183,81.64,97.712,102.273s25.793,11.411,2.018-32.589-33.14-59.015-86.446-123.645-64.058-74-93.587-94.638-21.119-7.8-11.5,20.859C109.432,134,138.135,167.9,191.441,232.537Z" transform="translate(-90.685 -73.805)" fill="none" stroke="#26e3ff" stroke-miterlimit="10" stroke-width="0.142"/>
      </g>
      <g id="Group_66" data-name="Group 66" transform="translate(184.867 146.648)">
        <path id="Path_68" data-name="Path 68" d="M190.369,235.009c54.184,67.332,69.366,85.1,100.247,107.248S317.965,355,294.66,309.818s-32.614-60.668-86.8-128-65.323-77.255-96.2-99.406-22.481-8.9-13.673,20.229C106.957,132.316,136.183,167.677,190.369,235.009Z" transform="translate(-89.871 -71.325)" fill="none" stroke="#26e3ff" stroke-miterlimit="10" stroke-width="0.148"/>
      </g>
      <g id="Group_67" data-name="Group 67" transform="translate(183.317 141.464)">
        <path id="Path_69" data-name="Path 69" d="M189.076,237.418c54.986,70.077,70.454,88.61,102.714,112.346s28.962,14.158,6.234-32.183-31.95-62.292-86.936-132.369-66.51-80.569-98.77-104.3S88.421,70.851,96.324,100.4C104.375,130.5,134.09,167.343,189.076,237.418Z" transform="translate(-89.119 -68.81)" fill="none" stroke="#26e3ff" stroke-miterlimit="10" stroke-width="0.154"/>
      </g>
      <g id="Group_68" data-name="Group 68" transform="translate(181.904 136.219)">
        <path id="Path_70" data-name="Path 70" d="M187.547,239.751c55.7,72.859,71.435,92.177,105.1,117.568s30.632,15.654,8.6-31.812-31.139-63.878-86.838-136.735S146.794,104.833,113.129,79.44s-25.366-11.3-18.469,18.621C101.692,128.547,131.848,166.892,187.547,239.751Z" transform="translate(-88.433 -66.265)" fill="none" stroke="#26e3ff" stroke-miterlimit="10" stroke-width="0.161"/>
      </g>
      <g id="Group_69" data-name="Group 69" transform="translate(180.642 130.917)">
        <path id="Path_71" data-name="Path 71" d="M185.768,241.994c56.315,75.674,72.3,95.79,107.4,122.908s32.359,17.236,11.143-31.318-30.166-65.42-86.481-141.094S149.21,105.127,114.113,78.009,87.221,65.4,93.006,95.637C98.9,126.448,129.453,166.32,185.768,241.994Z" transform="translate(-87.821 -63.691)" fill="none" stroke="#26e3ff" stroke-miterlimit="10" stroke-width="0.168"/>
      </g>
      <g id="Group_70" data-name="Group 70" transform="translate(179.533 125.566)">
        <path id="Path_72" data-name="Path 72" d="M183.732,244.136c56.822,78.518,73.028,99.441,109.582,128.36S327.458,391.4,307.19,341.8s-29.022-66.91-85.844-145.426-69.51-90.833-106.065-119.752-28.472-14-23.913,16.5C96.013,124.2,126.908,165.618,183.732,244.136Z" transform="translate(-87.283 -61.095)" fill="none" stroke="#26e3ff" stroke-miterlimit="10" stroke-width="0.175"/>
      </g>
      <g id="Group_71" data-name="Group 71" transform="translate(178.579 120.179)">
        <path id="Path_73" data-name="Path 73" d="M181.427,246.161c57.214,81.383,73.611,103.126,111.645,133.918s35.988,20.668,16.808-29.925-27.7-68.336-84.909-149.72S154.688,106.087,116.654,75.295s-30.11-15.47-26.9,15.227C93.036,121.8,124.215,164.779,181.427,246.161Z" transform="translate(-86.82 -58.481)" fill="none" stroke="#26e3ff" stroke-miterlimit="10" stroke-width="0.183"/>
      </g>
      <g id="Group_72" data-name="Group 72" transform="translate(177.778 114.774)">
        <path id="Path_74" data-name="Path 74" d="M178.849,248.051c57.473,84.266,74.036,106.837,113.57,139.577s37.888,22.522,19.946-29-26.176-69.692-83.65-153.957-70.924-97.9-110.456-130.635-31.8-17.024-30.061,13.8C89.975,119.235,121.375,163.785,178.849,248.051Z" transform="translate(-86.431 -55.858)" fill="none" stroke="#26e3ff" stroke-miterlimit="10" stroke-width="0.19"/>
      </g>
      <g id="Group_73" data-name="Group 73" transform="translate(177.095 109.353)">
        <path id="Path_75" data-name="Path 75" d="M176,249.793c57.591,87.159,74.287,110.565,115.336,145.331s39.843,24.474,23.3-27.92S290.191,296.237,232.6,209.08,161.183,107.606,120.134,72.841,86.583,54.176,86.721,85.047C86.863,116.5,118.411,162.634,176,249.793Z" transform="translate(-86.1 -53.228)" fill="none" stroke="#26e3ff" stroke-miterlimit="10" stroke-width="0.198"/>
      </g>
      <g id="Group_74" data-name="Group 74" transform="translate(175.986 103.934)">
        <path id="Path_76" data-name="Path 76" d="M173.164,251.368c57.556,90.052,74.345,114.3,116.925,151.167s41.857,26.526,26.881-26.662-22.5-72.148-80.058-162.2S165.166,108.6,122.586,71.733s-35.359-20.4-36.964,10.44C83.988,113.594,115.609,161.314,173.164,251.368Z" transform="translate(-85.562 -50.598)" fill="none" stroke="#26e3ff" stroke-miterlimit="10" stroke-width="0.207"/>
      </g>
      <g id="Group_75" data-name="Group 75" transform="translate(174.287 98.534)">
        <path id="Path_77" data-name="Path 77" d="M170.406,252.757c57.352,92.942,74.2,118.038,118.32,157.08s43.926,28.68,30.7-25.22-20.319-73.228-77.671-166.17S169.85,109.763,125.726,70.721,88.506,48.5,85.009,79.214C81.446,110.5,113.054,159.815,170.406,252.757Z" transform="translate(-84.737 -47.978)" fill="none" stroke="#26e3ff" stroke-miterlimit="10" stroke-width="0.216"/>
      </g>
      <g id="Group_76" data-name="Group 76" transform="translate(172.619 93.165)">
        <path id="Path_78" data-name="Path 78" d="M167.4,253.94C224.367,349.756,241.224,375.7,286.9,417s46.048,30.941,34.753-23.577-17.892-74.19-74.856-170.007-71.864-112.3-117.537-153.6-39.136-24.136-44.68,6.349C78.929,107.228,110.434,158.125,167.4,253.94Z" transform="translate(-83.928 -45.373)" fill="none" stroke="#26e3ff" stroke-miterlimit="10" stroke-width="0.225"/>
      </g>
      <g id="Group_77" data-name="Group 77" transform="translate(170.991 87.85)">
        <path id="Path_79" data-name="Path 79" d="M164.134,254.9c56.383,98.666,73.207,125.455,120.435,169.088s48.222,33.306,39.064-21.727-15.2-75.025-71.584-173.692S180.43,112.662,133.205,69.03s-41.109-26.151-48.859,4C76.447,103.757,107.75,156.231,164.134,254.9Z" transform="translate(-83.138 -42.793)" fill="none" stroke="#26e3ff" stroke-miterlimit="10" stroke-width="0.234"/>
      </g>
      <g id="Group_78" data-name="Group 78" transform="translate(169.403 82.599)">
        <path id="Path_80" data-name="Path 80" d="M160.6,255.609c55.59,101.482,72.328,129.115,121.108,175.159s50.45,35.786,43.639-19.652-12.231-75.718-67.821-177.2S186.379,114.421,137.6,68.376s-43.136-28.266-53.265,1.44C74.014,100.086,105.007,154.126,160.6,255.609Z" transform="translate(-82.367 -40.245)" fill="none" stroke="#26e3ff" stroke-miterlimit="10" stroke-width="0.244"/>
      </g>
      <g id="Group_79" data-name="Group 79" transform="translate(167.862 77.438)">
        <path id="Path_81" data-name="Path 81" d="M156.778,256.049C211.345,360.3,227.941,388.772,278.271,437.306S331,475.682,326.76,419.964s-8.969-76.255-63.536-180.507S192.794,116.4,142.465,67.87s-45.214-30.485-57.9-1.35C71.642,96.208,102.21,151.8,156.778,256.049Z" transform="translate(-81.619 -37.741)" fill="none" stroke="#26e3ff" stroke-miterlimit="10" stroke-width="0.255"/>
      </g>
      <g id="Group_80" data-name="Group 80" transform="translate(166.365 72.381)">
        <path id="Path_82" data-name="Path 82" d="M152.668,256.2c53.3,106.965,69.7,136.266,121.568,187.367s55.05,41.084,53.618-14.78-5.4-76.62-58.7-183.585S199.706,118.625,147.836,67.524s-47.343-32.808-62.77-4.377C69.348,92.117,99.366,149.23,152.668,256.2Z" transform="translate(-80.893 -35.287)" fill="none" stroke="#26e3ff" stroke-miterlimit="10" stroke-width="0.266"/>
      </g>
      <g id="Group_81" data-name="Group 81" transform="translate(164.914 67.456)">
        <path id="Path_83" data-name="Path 83" d="M148.257,256.025c51.773,109.609,67.9,139.726,121.3,193.473s57.418,43.909,59.042-11.955-1.5-76.8-53.271-186.4S207.142,121.107,153.745,67.359,104.222,32.116,85.859,59.7C67.149,87.811,96.484,146.415,148.257,256.025Z" transform="translate(-80.189 -32.897)" fill="none" stroke="#26e3ff" stroke-miterlimit="10" stroke-width="0.277"/>
      </g>
      <g id="Group_82" data-name="Group 82" transform="translate(163.506 62.684)">
        <path id="Path_84" data-name="Path 84" d="M143.535,255.507C193.5,367.674,209.291,398.6,264.194,455.064s59.827,46.854,64.769-8.847,2.741-76.771-47.221-188.937S215.129,123.858,160.225,67.39s-51.75-37.789-73.251-11.2C65.067,83.279,93.573,143.339,143.535,255.507Z" transform="translate(-79.506 -30.581)" fill="none" stroke="#26e3ff" stroke-miterlimit="10" stroke-width="0.289"/>
      </g>
      <g id="Group_83" data-name="Group 83" transform="translate(162.133 58.085)">
        <path id="Path_85" data-name="Path 85" d="M138.5,254.621c47.852,114.629,63.235,146.335,119.618,205.6s62.275,49.921,70.807-5.445,7.343-76.521-40.509-191.151S223.7,126.9,167.316,67.633,113.295,27.19,88.444,52.614C63.123,78.52,90.651,139.992,138.5,254.621Z" transform="translate(-78.84 -28.35)" fill="none" stroke="#26e3ff" stroke-miterlimit="10" stroke-width="0.301"/>
      </g>
      <g id="Group_84" data-name="Group 84" transform="translate(160.786 53.685)">
        <path id="Path_86" data-name="Path 86" d="M133.147,253.335c45.42,116.977,60.315,149.442,118.147,211.575s64.756,53.111,77.168-1.733,12.323-76.033-33.1-193.007S232.9,130.244,175.066,68.111,118.726,24.9,90.3,48.985C61.343,73.531,87.728,136.358,133.147,253.335Z" transform="translate(-78.186 -26.215)" fill="none" stroke="#26e3ff" stroke-miterlimit="10" stroke-width="0.314"/>
      </g>
      <g id="Group_85" data-name="Group 85" transform="translate(159.451 49.509)">
        <path id="Path_87" data-name="Path 87" d="M127.473,251.623c42.648,119.192,56.971,152.4,116.208,217.469s67.27,56.427,83.862,2.308,17.7-75.283-24.946-194.477-59.85-143-119.089-208.078-58.7-46.1-90.918-23.536C59.762,68.307,84.825,132.429,127.473,251.623Z" transform="translate(-77.538 -24.188)" fill="none" stroke="#26e3ff" stroke-miterlimit="10" stroke-width="0.327"/>
      </g>
      <g id="Group_86" data-name="Group 86" transform="translate(158.107 45.585)">
        <path id="Path_88" data-name="Path 88" d="M121.48,249.453c39.512,121.261,53.168,155.167,113.77,223.254s69.809,59.87,90.9,6.7,23.5-74.254-16.014-195.515S253.3,137.946,192.7,69.859,131.611,20.746,95.353,41.6C58.407,62.844,81.968,128.19,121.48,249.453Z" transform="translate(-76.886 -22.284)" fill="none" stroke="#26e3ff" stroke-miterlimit="10" stroke-width="0.341"/>
      </g>
      <g id="Group_87" data-name="Group 87" transform="translate(156.723 41.937)">
        <path id="Path_89" data-name="Path 89" d="M115.173,246.8c35.99,123.163,48.886,157.737,110.792,228.9s72.371,63.441,98.285,11.444,29.729-72.923-6.261-196.086S264.605,142.344,202.7,71.178,139.179,18.935,98.638,37.862C57.327,57.145,79.182,123.634,115.173,246.8Z" transform="translate(-76.214 -20.514)" fill="none" stroke="#26e3ff" stroke-miterlimit="10" stroke-width="0.356"/>
      </g>
      <g id="Group_88" data-name="Group 88" transform="translate(155.256 38.587)">
        <path id="Path_90" data-name="Path 90" d="M108.567,243.625C140.627,368.5,152.658,403.7,215.808,478.011s74.947,67.143,106.036,16.571,36.418-71.266,4.359-196.144-49.486-151.3-112.637-225.609S147.59,17.334,102.506,34.11C56.565,51.2,76.507,118.747,108.567,243.625Z" transform="translate(-75.502 -18.889)" fill="none" stroke="#26e3ff" stroke-miterlimit="10" stroke-width="0.371"/>
      </g>
      <g id="Group_89" data-name="Group 89" transform="translate(153.646 35.558)">
        <path id="Path_91" data-name="Path 91" d="M101.684,239.91c27.7,126.384,38.753,162.168,103.072,239.678s77.531,70.974,114.155,22.1S362.5,432.423,334.8,306.039s-45.109-153.685-109.428-231.2S156.916,15.97,107.024,30.365C56.184,45.034,73.987,113.526,101.684,239.91Z" transform="translate(-74.721 -17.419)" fill="none" stroke="#26e3ff" stroke-miterlimit="10" stroke-width="0.387"/>
      </g>
      <g id="Group_90" data-name="Group 90" transform="translate(151.806 32.874)">
        <path id="Path_92" data-name="Path 92" d="M94.562,235.623C117.436,363.285,127.4,399.6,192.81,480.366s80.121,74.932,122.654,28.041,51.25-66.887,28.377-194.547S303.618,158.024,238.213,77.255,167.254,14.881,112.278,26.644C56.258,38.632,71.687,107.961,94.562,235.623Z" transform="translate(-73.828 -16.116)" fill="none" stroke="#26e3ff" stroke-miterlimit="10" stroke-width="0.403"/>
      </g>
      <g id="Group_91" data-name="Group 91" transform="translate(149.601 30.541)">
        <path id="Path_93" data-name="Path 93" d="M87.257,230.738c17.566,128.684,26.318,165.467,92.721,249.549s82.706,79.023,131.542,34.423,59.435-64.113,41.869-192.8S318.6,164.187,252.193,80.107s-73.475-66-133.819-57.131C56.887,32.012,69.691,102.057,87.257,230.738Z" transform="translate(-72.758 -14.984)" fill="none" stroke="#26e3ff" stroke-miterlimit="10" stroke-width="0.42"/>
      </g>
      <g id="Group_92" data-name="Group 92" transform="translate(146.817 28.554)">
        <path id="Path_94" data-name="Path 94" d="M79.879,225.245C91.625,354.67,99.034,391.864,166.329,479.3s85.28,83.244,140.826,41.259,68.163-60.915,56.414-190.341-28.8-159.332-96.09-246.775-76-69.758-142.007-64.058C58.218,25.2,68.13,95.817,79.879,225.245Z" transform="translate(-71.407 -14.02)" fill="none" stroke="#26e3ff" stroke-miterlimit="10" stroke-width="0.438"/>
      </g>
      <g id="Group_93" data-name="Group 93" transform="translate(143.034 26.887)">
        <path id="Path_95" data-name="Path 95" d="M72.631,219.131c5.389,129.863,11.314,167.394,79.386,258.238s87.833,87.594,150.516,48.573,77.453-57.263,72.064-187.128S352.4,178.191,284.332,87.348s-78.528-73.64-150.5-71.4C60.5,18.229,67.242,89.268,72.631,219.131Z" transform="translate(-69.571 -13.211)" fill="none" stroke="#26e3ff" stroke-miterlimit="10" stroke-width="0.457"/>
      </g>
      <g id="Group_94" data-name="Group 94" transform="translate(136.278 25.409)">
        <path id="Path_96" data-name="Path 96" d="M66.524,212.45C64.986,342.418,69.283,380.207,138,474.488s90.355,92.07,160.616,56.385,87.33-53.131,88.869-183.1S372.539,186.213,303.815,91.929s-81.051-77.648-159.3-79.18C64.782,11.188,68.061,82.483,66.524,212.45Z" transform="translate(-66.293 -12.494)" fill="none" stroke="#26e3ff" stroke-miterlimit="10" stroke-width="0.476"/>
      </g>
      <g id="Group_95" data-name="Group 95" transform="translate(122.762 21.767)">
        <path id="Path_97" data-name="Path 97" d="M63.5,206.393c-9.063,129.708-6.549,167.67,62.683,265.419s92.841,96.672,171.136,64.713,97.817-48.488,106.881-178.2-7.04-162.124-76.27-259.874-83.559-81.784-168.41-87.408C73.061,5.316,72.562,76.683,63.5,206.393Z" transform="translate(-59.735 -10.726)" fill="none" stroke="#26e3ff" stroke-miterlimit="10" stroke-width="0.496"/>
      </g>
      <g id="Group_96" data-name="Group 96" transform="translate(106.753 17.962)">
        <path id="Path_98" data-name="Path 98" d="M61.359,199.907C44.143,328.964,44.712,367,114.3,468.242s95.276,101.4,182.081,73.581,108.935-43.3,126.151-172.358,1.583-162.271-68.006-263.509-86.048-86.046-177.832-96.1C83.174-.4,78.575,70.85,61.359,199.907Z" transform="translate(-51.966 -8.88)" fill="none" stroke="#26e3ff" stroke-miterlimit="10" stroke-width="0.517"/>
      </g>
      <g id="Group_97" data-name="Group 97" transform="translate(88.851 14.24)">
        <path id="Path_99" data-name="Path 99" d="M59.784,192.846c-26.03,127.979-27.575,166,42.2,270.74s97.651,106.246,193.457,83.009,120.709-37.541,146.738-165.521,10.949-161.966-58.827-266.707S294.846,23.935,195.792,9.089C94.859-6.039,85.814,64.867,59.784,192.846Z" transform="translate(-43.279 -7.074)" fill="none" stroke="#26e3ff" stroke-miterlimit="10" stroke-width="0.539"/>
      </g>
      <g id="Group_98" data-name="Group 98" transform="translate(69.226 10.608)">
        <path id="Path_100" data-name="Path 100" d="M58.685,185.186C23.151,311.628,19.31,349.514,89.092,457.763s99.952,111.21,205.269,93.02,133.162-31.174,168.7-157.613S484.156,232,414.373,123.75,323.445,28.812,216.769,8.8C108.072-11.59,94.22,58.744,58.685,185.186Z" transform="translate(-33.756 -5.312)" fill="none" stroke="#26e3ff" stroke-miterlimit="10" stroke-width="0.563"/>
      </g>
      <g id="Group_99" data-name="Group 99" transform="translate(47.929 7.075)">
        <path id="Path_101" data-name="Path 101" d="M58.031,176.9C12.267,301.311,5.943,338.943,75.531,450.7S177.7,566.988,293.054,554.332s146.316-24.161,192.08-148.568,32.07-159.845-37.519-271.6S354.315,34.6,239.661,9.031C122.835-17.019,103.8,52.5,58.031,176.9Z" transform="translate(-23.422 -3.597)" fill="none" stroke="#26e3ff" stroke-miterlimit="10" stroke-width="0.586"/>
      </g>
      <g id="Group_100" data-name="Group 100" transform="translate(24.969 3.645)">
        <path id="Path_102" data-name="Path 102" d="M57.817,167.973C1.065,289.815-7.941,327.066,61.238,442.31S165.524,563.787,291.455,557.188s160.2-16.47,216.948-138.314,43.9-157.947-25.273-273.191S387.521,41.369,264.52,9.836C139.189-22.293,114.569,46.131,57.817,167.973Z" transform="translate(-12.28 -1.933)" fill="none" stroke="#26e3ff" stroke-miterlimit="10" stroke-width="0.611"/>
      </g>
      <g id="Group_101" data-name="Group 101" transform="translate(0.319 0.319)">
        <path id="Path_103" data-name="Path 103" d="M58.052,158.374C-10.484,277.079-22.376,313.806,46.159,432.512S152.449,559.282,289.518,559.282s174.823-8.064,243.359-126.769,56.641-155.433-11.893-274.139S423.133,49.2,291.416,11.272C157.2-27.372,126.586,39.668,58.052,158.374Z" transform="translate(-0.319 -0.319)" fill="none" stroke="#26e3ff" stroke-miterlimit="10" stroke-width="0.637"/>
      </g>
    </g>
  </g>
</svg>
