<svg xmlns="http://www.w3.org/2000/svg" viewBox="0 0 374.936 490">
  <g fill="#fff">
    <path data-name="Path 10" d="M135.145 414.329A121.264 121.264 0 0 1 66.46 305.153V144.178a31.321 31.321 0 0 0-31.321-31.321H0v192.3a187.556 187.556 0 0 0 153.159 184.346V442.68a31.5 31.5 0 0 0-18.014-28.351Z"/>
    <path data-name="Path 11" d="M308.476 144.178v160.975a121.162 121.162 0 0 1-71 110.178 31.489 31.489 0 0 0-18.66 28.577V490c88.493-14.96 156.118-92.167 156.118-184.847v-192.3h-35.14a31.32 31.32 0 0 0-31.318 31.325Z"/>
    <path data-name="Path 12" d="M222.463 1.622A1.623 1.623 0 0 0 220.84 0h-35.427A29.413 29.413 0 0 0 156 29.413v219.463a1.623 1.623 0 0 0 1.622 1.622h36.752a28.086 28.086 0 0 0 28.086-28.086Z"/>
  </g>
</svg>
